<mxfile host="app.diagrams.net" modified="2021-03-01T00:40:43.149Z" agent="5.0 (Macintosh; Intel Mac OS X 11_1_0) AppleWebKit/537.36 (KHTML, like Gecko) Chrome/88.0.4324.192 Safari/537.36" etag="_NFIF31IjbpPOQmRDxyX" version="14.4.3" type="github">
  <diagram name="Page-1" id="13e1069c-82ec-6db2-03f1-153e76fe0fe0">
    <mxGraphModel dx="2336" dy="1306" grid="1" gridSize="10" guides="1" tooltips="1" connect="1" arrows="1" fold="1" page="1" pageScale="1" pageWidth="1100" pageHeight="850" background="#ffffff" math="0" shadow="0">
      <root>
        <mxCell id="0" />
        <mxCell id="1" parent="0" />
        <mxCell id="KET4zgN558z-WZL4oBF5-61" style="edgeStyle=none;orthogonalLoop=1;jettySize=auto;html=1;endArrow=classic;endFill=1;" edge="1" parent="1" source="KET4zgN558z-WZL4oBF5-2">
          <mxGeometry relative="1" as="geometry">
            <mxPoint x="270" y="380" as="targetPoint" />
          </mxGeometry>
        </mxCell>
        <mxCell id="KET4zgN558z-WZL4oBF5-2" value="用户" style="shape=umlActor;verticalLabelPosition=bottom;verticalAlign=top;html=1;" vertex="1" parent="1">
          <mxGeometry x="130" y="350" width="30" height="60" as="geometry" />
        </mxCell>
        <mxCell id="KET4zgN558z-WZL4oBF5-97" style="edgeStyle=none;orthogonalLoop=1;jettySize=auto;html=1;endArrow=none;endFill=0;fontColor=#333333;dashed=1;" edge="1" parent="1" source="KET4zgN558z-WZL4oBF5-3" target="KET4zgN558z-WZL4oBF5-98">
          <mxGeometry relative="1" as="geometry">
            <mxPoint x="1360" y="1063.3333333333333" as="targetPoint" />
          </mxGeometry>
        </mxCell>
        <mxCell id="KET4zgN558z-WZL4oBF5-3" value="&lt;span style=&quot;color: rgb(50 , 50 , 50) ; font-size: 13px ; background-color: rgba(255 , 255 , 255 , 0.01)&quot;&gt;支付结果页&lt;/span&gt;" style="html=1;" vertex="1" parent="1">
          <mxGeometry x="1300" y="80" width="110" height="50" as="geometry" />
        </mxCell>
        <mxCell id="KET4zgN558z-WZL4oBF5-58" style="edgeStyle=none;orthogonalLoop=1;jettySize=auto;html=1;endArrow=none;endFill=0;dashed=1;" edge="1" parent="1" source="KET4zgN558z-WZL4oBF5-4" target="KET4zgN558z-WZL4oBF5-59">
          <mxGeometry relative="1" as="geometry">
            <mxPoint x="920" y="400" as="targetPoint" />
          </mxGeometry>
        </mxCell>
        <mxCell id="KET4zgN558z-WZL4oBF5-4" value="&lt;span style=&quot;color: rgb(50 , 50 , 50) ; font-size: 13px ; background-color: rgba(255 , 255 , 255 , 0.01)&quot;&gt;支付渠道页&lt;/span&gt;" style="html=1;" vertex="1" parent="1">
          <mxGeometry x="870" y="80" width="110" height="50" as="geometry" />
        </mxCell>
        <mxCell id="KET4zgN558z-WZL4oBF5-47" style="edgeStyle=none;orthogonalLoop=1;jettySize=auto;html=1;exitX=0.5;exitY=1;exitDx=0;exitDy=0;dashed=1;endArrow=none;endFill=0;" edge="1" parent="1" source="KET4zgN558z-WZL4oBF5-5" target="KET4zgN558z-WZL4oBF5-48">
          <mxGeometry relative="1" as="geometry">
            <mxPoint x="715" y="250" as="targetPoint" />
          </mxGeometry>
        </mxCell>
        <mxCell id="KET4zgN558z-WZL4oBF5-5" value="&lt;span style=&quot;color: rgb(50 , 50 , 50) ; font-size: 13px ; background-color: rgba(255 , 255 , 255 , 0.01)&quot;&gt;优惠券选择页&lt;/span&gt;" style="html=1;" vertex="1" parent="1">
          <mxGeometry x="660" y="80" width="110" height="50" as="geometry" />
        </mxCell>
        <mxCell id="KET4zgN558z-WZL4oBF5-44" style="edgeStyle=none;orthogonalLoop=1;jettySize=auto;html=1;exitX=0.5;exitY=1;exitDx=0;exitDy=0;endArrow=none;endFill=0;dashed=1;" edge="1" parent="1" source="KET4zgN558z-WZL4oBF5-6" target="KET4zgN558z-WZL4oBF5-45">
          <mxGeometry relative="1" as="geometry">
            <mxPoint x="484.66666666666697" y="320" as="targetPoint" />
          </mxGeometry>
        </mxCell>
        <mxCell id="KET4zgN558z-WZL4oBF5-6" value="&lt;span style=&quot;color: rgb(50 , 50 , 50) ; font-size: 13px ; background-color: rgba(255 , 255 , 255 , 0.01)&quot;&gt;使用优惠券详情页&lt;/span&gt;" style="html=1;" vertex="1" parent="1">
          <mxGeometry x="430" y="80" width="110" height="50" as="geometry" />
        </mxCell>
        <mxCell id="KET4zgN558z-WZL4oBF5-92" style="edgeStyle=orthogonalEdgeStyle;orthogonalLoop=1;jettySize=auto;html=1;endArrow=none;endFill=0;fontColor=#333333;dashed=1;" edge="1" parent="1" source="KET4zgN558z-WZL4oBF5-7" target="KET4zgN558z-WZL4oBF5-93">
          <mxGeometry relative="1" as="geometry">
            <mxPoint x="1135" y="1080" as="targetPoint" />
          </mxGeometry>
        </mxCell>
        <mxCell id="KET4zgN558z-WZL4oBF5-7" value="&lt;span style=&quot;color: rgb(50 , 50 , 50) ; font-size: 13px ; background-color: rgba(255 , 255 , 255 , 0.01)&quot;&gt;支付等待页&lt;/span&gt;" style="html=1;" vertex="1" parent="1">
          <mxGeometry x="1080" y="80" width="110" height="50" as="geometry" />
        </mxCell>
        <mxCell id="KET4zgN558z-WZL4oBF5-86" style="edgeStyle=none;orthogonalLoop=1;jettySize=auto;html=1;endArrow=none;endFill=0;fontColor=#333333;dashed=1;" edge="1" parent="1" source="KET4zgN558z-WZL4oBF5-8" target="KET4zgN558z-WZL4oBF5-87">
          <mxGeometry relative="1" as="geometry">
            <mxPoint x="2175" y="740" as="targetPoint" />
          </mxGeometry>
        </mxCell>
        <mxCell id="KET4zgN558z-WZL4oBF5-8" value="&lt;span style=&quot;color: rgb(50 , 50 , 50) ; font-size: 13px ; background-color: rgba(255 , 255 , 255 , 0.01)&quot;&gt;payment&lt;/span&gt;" style="html=1;" vertex="1" parent="1">
          <mxGeometry x="2120" y="80" width="110" height="50" as="geometry" />
        </mxCell>
        <mxCell id="KET4zgN558z-WZL4oBF5-62" style="edgeStyle=none;orthogonalLoop=1;jettySize=auto;html=1;endArrow=classic;endFill=1;" edge="1" parent="1" source="KET4zgN558z-WZL4oBF5-9" target="KET4zgN558z-WZL4oBF5-63">
          <mxGeometry relative="1" as="geometry">
            <mxPoint x="1890" y="390" as="targetPoint" />
          </mxGeometry>
        </mxCell>
        <mxCell id="KET4zgN558z-WZL4oBF5-9" value="&lt;span style=&quot;color: rgb(50 , 50 , 50) ; font-size: 13px ; background-color: rgba(255 , 255 , 255 , 0.01)&quot;&gt;ec-order&lt;/span&gt;" style="html=1;" vertex="1" parent="1">
          <mxGeometry x="1840" y="80" width="110" height="50" as="geometry" />
        </mxCell>
        <mxCell id="KET4zgN558z-WZL4oBF5-29" style="edgeStyle=none;orthogonalLoop=1;jettySize=auto;html=1;dashed=1;endArrow=none;endFill=0;" edge="1" parent="1" source="KET4zgN558z-WZL4oBF5-30">
          <mxGeometry relative="1" as="geometry">
            <mxPoint x="1615" y="300" as="targetPoint" />
          </mxGeometry>
        </mxCell>
        <mxCell id="KET4zgN558z-WZL4oBF5-10" value="&lt;span style=&quot;color: rgb(50 , 50 , 50) ; font-size: 13px ; background-color: rgba(255 , 255 , 255 , 0.01)&quot;&gt;membership&lt;/span&gt;" style="html=1;" vertex="1" parent="1">
          <mxGeometry x="1560" y="75" width="110" height="60" as="geometry" />
        </mxCell>
        <mxCell id="KET4zgN558z-WZL4oBF5-12" value="" style="html=1;points=[];perimeter=orthogonalPerimeter;" vertex="1" parent="1">
          <mxGeometry x="275" y="210" width="15" height="390" as="geometry" />
        </mxCell>
        <mxCell id="KET4zgN558z-WZL4oBF5-15" value="&lt;span style=&quot;color: rgb(50 , 50 , 50) ; font-size: 13px ; background-color: rgba(255 , 255 , 255 , 0.01)&quot;&gt;app商品页&lt;/span&gt;" style="shape=umlLifeline;perimeter=lifelinePerimeter;whiteSpace=wrap;html=1;container=1;collapsible=0;recursiveResize=0;outlineConnect=0;" vertex="1" parent="1">
          <mxGeometry x="230" y="80" width="100" height="130" as="geometry" />
        </mxCell>
        <mxCell id="KET4zgN558z-WZL4oBF5-42" style="edgeStyle=none;orthogonalLoop=1;jettySize=auto;html=1;endArrow=classic;endFill=1;" edge="1" parent="1">
          <mxGeometry relative="1" as="geometry">
            <mxPoint x="285" y="240" as="sourcePoint" />
            <mxPoint x="1610" y="240" as="targetPoint" />
          </mxGeometry>
        </mxCell>
        <mxCell id="KET4zgN558z-WZL4oBF5-77" style="orthogonalLoop=1;jettySize=auto;html=1;endArrow=classic;endFill=1;fontColor=#333333;entryX=1;entryY=0.204;entryDx=0;entryDy=0;entryPerimeter=0;" edge="1" parent="1" target="KET4zgN558z-WZL4oBF5-12">
          <mxGeometry relative="1" as="geometry">
            <mxPoint x="1615" y="290" as="sourcePoint" />
            <mxPoint x="300" y="280" as="targetPoint" />
            <Array as="points" />
          </mxGeometry>
        </mxCell>
        <mxCell id="KET4zgN558z-WZL4oBF5-30" value="" style="html=1;points=[];perimeter=orthogonalPerimeter;" vertex="1" parent="1">
          <mxGeometry x="1610" y="210" width="10" height="110" as="geometry" />
        </mxCell>
        <mxCell id="KET4zgN558z-WZL4oBF5-33" style="edgeStyle=none;orthogonalLoop=1;jettySize=auto;html=1;dashed=1;endArrow=none;endFill=0;" edge="1" parent="1" source="KET4zgN558z-WZL4oBF5-10" target="KET4zgN558z-WZL4oBF5-30">
          <mxGeometry relative="1" as="geometry">
            <mxPoint x="1615" y="300" as="targetPoint" />
            <mxPoint x="1615" y="135" as="sourcePoint" />
          </mxGeometry>
        </mxCell>
        <mxCell id="KET4zgN558z-WZL4oBF5-43" value="&lt;pre style=&quot;font-family: &amp;#34;courier new&amp;#34; ; font-size: 12pt&quot;&gt;&lt;font color=&quot;#4d4d4d&quot;&gt;/v1/product/categorys拉取商品及优惠券&lt;/font&gt;&lt;/pre&gt;" style="text;html=1;align=center;verticalAlign=middle;resizable=0;points=[];autosize=1;labelBackgroundColor=none;" vertex="1" parent="1">
          <mxGeometry x="775" y="190" width="350" height="50" as="geometry" />
        </mxCell>
        <mxCell id="KET4zgN558z-WZL4oBF5-53" style="edgeStyle=none;orthogonalLoop=1;jettySize=auto;html=1;endArrow=classic;endFill=1;" edge="1" parent="1" target="KET4zgN558z-WZL4oBF5-45">
          <mxGeometry relative="1" as="geometry">
            <mxPoint x="708" y="580" as="sourcePoint" />
            <Array as="points">
              <mxPoint x="640" y="580" />
            </Array>
          </mxGeometry>
        </mxCell>
        <mxCell id="KET4zgN558z-WZL4oBF5-57" style="edgeStyle=none;orthogonalLoop=1;jettySize=auto;html=1;endArrow=classic;endFill=1;exitX=0.867;exitY=0.563;exitDx=0;exitDy=0;exitPerimeter=0;" edge="1" parent="1">
          <mxGeometry relative="1" as="geometry">
            <mxPoint x="1890" y="360.00000000000006" as="targetPoint" />
            <mxPoint x="287.6750000000006" y="363.91" as="sourcePoint" />
            <Array as="points" />
          </mxGeometry>
        </mxCell>
        <mxCell id="KET4zgN558z-WZL4oBF5-64" value="&lt;pre style=&quot;font-family: &amp;#34;courier new&amp;#34; ; font-size: 12pt&quot;&gt;&lt;font color=&quot;#4d4d4d&quot;&gt;点击购买/v5/ott-orders&lt;/font&gt;&lt;/pre&gt;" style="edgeLabel;html=1;align=center;verticalAlign=middle;resizable=0;points=[];labelBackgroundColor=none;" vertex="1" connectable="0" parent="KET4zgN558z-WZL4oBF5-57">
          <mxGeometry x="-0.2626" y="-3" relative="1" as="geometry">
            <mxPoint y="-13.649999999999999" as="offset" />
          </mxGeometry>
        </mxCell>
        <mxCell id="KET4zgN558z-WZL4oBF5-67" style="edgeStyle=none;orthogonalLoop=1;jettySize=auto;html=1;endArrow=classic;endFill=1;" edge="1" parent="1" source="KET4zgN558z-WZL4oBF5-45">
          <mxGeometry relative="1" as="geometry">
            <mxPoint x="1880" y="480" as="targetPoint" />
          </mxGeometry>
        </mxCell>
        <mxCell id="KET4zgN558z-WZL4oBF5-45" value="" style="html=1;points=[];perimeter=orthogonalPerimeter;labelBackgroundColor=#ffffff;" vertex="1" parent="1">
          <mxGeometry x="480" y="395" width="10" height="260" as="geometry" />
        </mxCell>
        <mxCell id="KET4zgN558z-WZL4oBF5-55" style="edgeStyle=none;orthogonalLoop=1;jettySize=auto;html=1;endArrow=classic;endFill=1;" edge="1" parent="1" source="KET4zgN558z-WZL4oBF5-45" target="KET4zgN558z-WZL4oBF5-48">
          <mxGeometry relative="1" as="geometry">
            <mxPoint x="490" y="330" as="sourcePoint" />
            <Array as="points">
              <mxPoint x="600" y="540" />
            </Array>
          </mxGeometry>
        </mxCell>
        <mxCell id="KET4zgN558z-WZL4oBF5-48" value="" style="html=1;points=[];perimeter=orthogonalPerimeter;labelBackgroundColor=none;" vertex="1" parent="1">
          <mxGeometry x="710" y="510" width="10" height="120" as="geometry" />
        </mxCell>
        <mxCell id="KET4zgN558z-WZL4oBF5-54" value="修改使用的优惠券" style="text;html=1;align=center;verticalAlign=middle;resizable=0;points=[];autosize=1;" vertex="1" parent="1">
          <mxGeometry x="550" y="520" width="110" height="20" as="geometry" />
        </mxCell>
        <mxCell id="KET4zgN558z-WZL4oBF5-84" style="edgeStyle=none;orthogonalLoop=1;jettySize=auto;html=1;endArrow=classic;endFill=1;fontColor=#333333;" edge="1" parent="1" source="KET4zgN558z-WZL4oBF5-59">
          <mxGeometry relative="1" as="geometry">
            <mxPoint x="2160" y="790" as="targetPoint" />
          </mxGeometry>
        </mxCell>
        <mxCell id="KET4zgN558z-WZL4oBF5-59" value="" style="html=1;points=[];perimeter=orthogonalPerimeter;labelBackgroundColor=none;" vertex="1" parent="1">
          <mxGeometry x="920" y="600" width="10" height="250" as="geometry" />
        </mxCell>
        <mxCell id="KET4zgN558z-WZL4oBF5-65" style="edgeStyle=none;orthogonalLoop=1;jettySize=auto;html=1;entryX=1.3;entryY=0.862;entryDx=0;entryDy=0;entryPerimeter=0;endArrow=classic;endFill=1;" edge="1" parent="1">
          <mxGeometry relative="1" as="geometry">
            <mxPoint x="1887" y="410.00000000000006" as="sourcePoint" />
            <mxPoint x="490" y="410.00000000000006" as="targetPoint" />
          </mxGeometry>
        </mxCell>
        <mxCell id="KET4zgN558z-WZL4oBF5-66" value="有推荐的优惠券" style="edgeLabel;html=1;align=center;verticalAlign=middle;resizable=0;points=[];" vertex="1" connectable="0" parent="KET4zgN558z-WZL4oBF5-65">
          <mxGeometry x="-0.1549" relative="1" as="geometry">
            <mxPoint y="-15.160000000000004" as="offset" />
          </mxGeometry>
        </mxCell>
        <mxCell id="KET4zgN558z-WZL4oBF5-69" style="edgeStyle=orthogonalEdgeStyle;orthogonalLoop=1;jettySize=auto;html=1;endArrow=classic;endFill=1;fontColor=#333333;" edge="1" parent="1" source="KET4zgN558z-WZL4oBF5-63">
          <mxGeometry relative="1" as="geometry">
            <mxPoint x="1200" y="480" as="targetPoint" />
            <Array as="points">
              <mxPoint x="1200" y="450" />
              <mxPoint x="1200" y="480" />
            </Array>
          </mxGeometry>
        </mxCell>
        <mxCell id="KET4zgN558z-WZL4oBF5-82" style="orthogonalLoop=1;jettySize=auto;html=1;endArrow=classic;endFill=1;fontColor=#333333;exitX=-0.367;exitY=0.942;exitDx=0;exitDy=0;exitPerimeter=0;" edge="1" parent="1" source="KET4zgN558z-WZL4oBF5-63" target="KET4zgN558z-WZL4oBF5-59">
          <mxGeometry relative="1" as="geometry">
            <mxPoint x="1880" y="660" as="sourcePoint" />
          </mxGeometry>
        </mxCell>
        <mxCell id="KET4zgN558z-WZL4oBF5-63" value="" style="html=1;points=[];perimeter=orthogonalPerimeter;" vertex="1" parent="1">
          <mxGeometry x="1890" y="310" width="10" height="370" as="geometry" />
        </mxCell>
        <mxCell id="KET4zgN558z-WZL4oBF5-68" value="&lt;pre style=&quot;font-family: &amp;#34;courier new&amp;#34; ; font-size: 12pt&quot;&gt;&lt;span&gt;绑定优惠券生成预支付单/v5/ott-orders/coupon&lt;/span&gt;&lt;/pre&gt;" style="text;html=1;align=center;verticalAlign=middle;resizable=0;points=[];autosize=1;labelBackgroundColor=none;fontColor=#333333;" vertex="1" parent="1">
          <mxGeometry x="1390" y="445" width="390" height="50" as="geometry" />
        </mxCell>
        <mxCell id="KET4zgN558z-WZL4oBF5-72" value="无优惠券" style="text;html=1;align=center;verticalAlign=middle;resizable=0;points=[];autosize=1;fontColor=#333333;" vertex="1" parent="1">
          <mxGeometry x="1720" y="425" width="60" height="20" as="geometry" />
        </mxCell>
        <mxCell id="KET4zgN558z-WZL4oBF5-78" value="返回商品列表" style="text;html=1;align=center;verticalAlign=middle;resizable=0;points=[];autosize=1;fontColor=#333333;" vertex="1" parent="1">
          <mxGeometry x="1380" y="260" width="90" height="20" as="geometry" />
        </mxCell>
        <mxCell id="KET4zgN558z-WZL4oBF5-83" value="通过&lt;strong style=&quot;font-family: &amp;#34;arial&amp;#34; , sans-serif ; font-size: 14px&quot;&gt;&lt;span style=&quot;color: rgb(0 , 0 , 0)&quot;&gt;/ec-order/v3/ott-order/pay-channels&lt;/span&gt;&lt;/strong&gt;&lt;br&gt;获取支付渠道列表" style="text;html=1;align=center;verticalAlign=middle;resizable=0;points=[];autosize=1;fontColor=#333333;" vertex="1" parent="1">
          <mxGeometry x="1240" y="625" width="270" height="30" as="geometry" />
        </mxCell>
        <mxCell id="KET4zgN558z-WZL4oBF5-85" value="&lt;span style=&quot;background-color: rgb(255 , 255 , 255)&quot;&gt;点击pay发起支付&lt;span style=&quot;font-family: &amp;#34;courier new&amp;#34; ; font-size: 12pt&quot;&gt;/api/v4/invoke-payment&lt;/span&gt;&lt;/span&gt;" style="text;html=1;align=center;verticalAlign=middle;resizable=0;points=[];autosize=1;fontColor=#333333;" vertex="1" parent="1">
          <mxGeometry x="1340" y="770" width="320" height="20" as="geometry" />
        </mxCell>
        <mxCell id="KET4zgN558z-WZL4oBF5-88" style="edgeStyle=orthogonalEdgeStyle;orthogonalLoop=1;jettySize=auto;html=1;endArrow=classic;endFill=1;fontColor=#333333;" edge="1" parent="1" source="KET4zgN558z-WZL4oBF5-87" target="KET4zgN558z-WZL4oBF5-87">
          <mxGeometry relative="1" as="geometry">
            <mxPoint x="2150" y="900" as="targetPoint" />
            <Array as="points">
              <mxPoint x="1740" y="840" />
              <mxPoint x="1740" y="900" />
            </Array>
          </mxGeometry>
        </mxCell>
        <mxCell id="KET4zgN558z-WZL4oBF5-91" value="&lt;span style=&quot;&quot;&gt;进入异步请求&lt;span style=&quot;font-family: &amp;quot;courier new&amp;quot; ; font-size: 12pt&quot;&gt;/api/v4/get-payment-init-result&lt;/span&gt;&lt;/span&gt;" style="edgeLabel;html=1;align=center;verticalAlign=middle;resizable=0;points=[];fontColor=#333333;labelBackgroundColor=none;" vertex="1" connectable="0" parent="KET4zgN558z-WZL4oBF5-88">
          <mxGeometry x="-0.3759" y="4" relative="1" as="geometry">
            <mxPoint x="66.67" y="-14" as="offset" />
          </mxGeometry>
        </mxCell>
        <mxCell id="KET4zgN558z-WZL4oBF5-94" style="orthogonalLoop=1;jettySize=auto;html=1;endArrow=classic;endFill=1;fontColor=#333333;" edge="1" parent="1" source="KET4zgN558z-WZL4oBF5-87" target="KET4zgN558z-WZL4oBF5-93">
          <mxGeometry relative="1" as="geometry">
            <Array as="points">
              <mxPoint x="1930" y="1010" />
            </Array>
          </mxGeometry>
        </mxCell>
        <mxCell id="KET4zgN558z-WZL4oBF5-95" value="返回请求结果等待中状态" style="edgeLabel;html=1;align=center;verticalAlign=middle;resizable=0;points=[];fontColor=#333333;" vertex="1" connectable="0" parent="KET4zgN558z-WZL4oBF5-94">
          <mxGeometry x="-0.2939" relative="1" as="geometry">
            <mxPoint y="-10" as="offset" />
          </mxGeometry>
        </mxCell>
        <mxCell id="KET4zgN558z-WZL4oBF5-104" style="edgeStyle=none;orthogonalLoop=1;jettySize=auto;html=1;entryX=1.5;entryY=0.669;entryDx=0;entryDy=0;entryPerimeter=0;endArrow=classic;endFill=1;fontColor=#333333;" edge="1" parent="1" source="KET4zgN558z-WZL4oBF5-87" target="KET4zgN558z-WZL4oBF5-98">
          <mxGeometry relative="1" as="geometry" />
        </mxCell>
        <mxCell id="KET4zgN558z-WZL4oBF5-105" value="直接返回支付结果" style="edgeLabel;html=1;align=center;verticalAlign=middle;resizable=0;points=[];fontColor=#333333;" vertex="1" connectable="0" parent="KET4zgN558z-WZL4oBF5-104">
          <mxGeometry x="0.1677" y="5" relative="1" as="geometry">
            <mxPoint y="-22.04" as="offset" />
          </mxGeometry>
        </mxCell>
        <mxCell id="KET4zgN558z-WZL4oBF5-87" value="" style="html=1;points=[];perimeter=orthogonalPerimeter;labelBackgroundColor=none;fontColor=#333333;" vertex="1" parent="1">
          <mxGeometry x="2170" y="710" width="10" height="490" as="geometry" />
        </mxCell>
        <mxCell id="KET4zgN558z-WZL4oBF5-96" style="edgeStyle=none;orthogonalLoop=1;jettySize=auto;html=1;endArrow=classic;endFill=1;fontColor=#333333;" edge="1" parent="1" source="KET4zgN558z-WZL4oBF5-93" target="KET4zgN558z-WZL4oBF5-98">
          <mxGeometry relative="1" as="geometry">
            <mxPoint x="1340" y="1120" as="targetPoint" />
            <Array as="points">
              <mxPoint x="1280" y="1120" />
            </Array>
          </mxGeometry>
        </mxCell>
        <mxCell id="KET4zgN558z-WZL4oBF5-99" value="查询支付结果&lt;br&gt;&lt;span style=&quot;font-family: &amp;#34;courier new&amp;#34; ; font-size: 12pt&quot;&gt;/v2/order-pay-bills/&lt;/span&gt;" style="edgeLabel;html=1;align=center;verticalAlign=middle;resizable=0;points=[];fontColor=#333333;labelBackgroundColor=none;" vertex="1" connectable="0" parent="KET4zgN558z-WZL4oBF5-96">
          <mxGeometry x="-0.1238" y="7" relative="1" as="geometry">
            <mxPoint x="6.67" y="-18" as="offset" />
          </mxGeometry>
        </mxCell>
        <mxCell id="KET4zgN558z-WZL4oBF5-93" value="" style="html=1;points=[];perimeter=orthogonalPerimeter;labelBackgroundColor=none;fontColor=#333333;" vertex="1" parent="1">
          <mxGeometry x="1130" y="980" width="10" height="220" as="geometry" />
        </mxCell>
        <mxCell id="KET4zgN558z-WZL4oBF5-98" value="" style="html=1;points=[];perimeter=orthogonalPerimeter;labelBackgroundColor=none;fontColor=#333333;" vertex="1" parent="1">
          <mxGeometry x="1350" y="1040" width="10" height="160" as="geometry" />
        </mxCell>
      </root>
    </mxGraphModel>
  </diagram>
</mxfile>
